<?xml version="1.0" encoding="UTF-8"?>
<svg width="96px" height="96px" enable-background="new 0 0 96 96" version="1.1" viewBox="0 0 96 96" xml:space="preserve" xmlns="http://www.w3.org/2000/svg" xmlns:xlink="http://www.w3.org/1999/xlink"><defs><filter id="filter2624" x="-1.2e-6" y="-1.2e-6" width="1" height="1" color-interpolation-filters="sRGB"><feGaussianBlur stdDeviation="4e-05"/></filter><linearGradient id="a" x1="-29.25" x2="-23.09" y1="662.02" y2="658.46" gradientTransform="matrix(24.45 0 0 -24.45 967.18 16421)" gradientUnits="userSpaceOnUse"><stop stop-color="#37bdff" offset="0"/><stop stop-color="#33bffd" offset=".18"/><stop stop-color="#28c5f5" offset=".36"/><stop stop-color="#15d0e9" offset=".53"/><stop stop-color="#12d1e7" offset=".55"/><stop stop-color="#1cd2e5" offset=".59"/><stop stop-color="#42d8dc" offset=".77"/><stop stop-color="#59dbd6" offset=".91"/><stop stop-color="#62dcd4" offset="1"/></linearGradient><linearGradient id="b" x1="-32.86" x2="-23.89" y1="656.68" y2="656.68" gradientTransform="matrix(24.45 0 0 -24.45 967.18 16421)" gradientUnits="userSpaceOnUse"><stop stop-color="#39d2ff" offset="0"/><stop stop-color="#38cefe" offset=".15"/><stop stop-color="#35c3fa" offset=".29"/><stop stop-color="#2fb0f3" offset=".43"/><stop stop-color="#299aeb" offset=".55"/><stop stop-color="#2692ec" offset=".58"/><stop stop-color="#1a6cf1" offset=".76"/><stop stop-color="#1355f4" offset=".91"/><stop stop-color="#104cf5" offset="1"/></linearGradient><linearGradient id="c" x1="-31.2" x2="-31.2" y1="655.9" y2="667.89" gradientTransform="matrix(24.45 0 0 -24.45 967.18 16421)" gradientUnits="userSpaceOnUse"><stop stop-color="#1b48ef" offset="0"/><stop stop-color="#1c51f0" offset=".12"/><stop stop-color="#1e69f5" offset=".32"/><stop stop-color="#2190fb" offset=".57"/><stop stop-color="#26b8f4" offset="1"/></linearGradient><clipPath id="d" transform="translate(-163 -82.94)"><rect x="163.02" y="288.38" width="227.17" height="140.76" fill="none"/></clipPath><linearGradient id="e" x1="-31.08" x2="-25.54" y1="654.47" y2="660" gradientTransform="matrix(24.45 0 0 -24.45 967.18 16421)" gradientUnits="userSpaceOnUse"><stop stop-color="#fff" offset="0"/><stop stop-color="#fdfdfd" offset=".37"/><stop stop-color="#f6f6f6" offset=".51"/><stop stop-color="#ebebeb" offset=".6"/><stop stop-color="#dadada" offset=".68"/><stop stop-color="#c4c4c4" offset=".75"/><stop stop-color="#a8a8a8" offset=".81"/><stop stop-color="#888" offset=".86"/><stop stop-color="#626262" offset=".91"/><stop stop-color="#373737" offset=".95"/><stop stop-color="#090909" offset=".99"/><stop offset="1"/></linearGradient><clipPath id="f" transform="translate(-163 -82.94)"><rect x="163.02" y="82.87" width="86.51" height="302.96" fill="none"/></clipPath><linearGradient id="g" x1="-31.2" x2="-31.2" y1="668.1" y2="656.02" xlink:href="#e"/><linearGradient id="linearGradient1190" x1="-31.08" x2="-25.54" y1="654.47" y2="660" gradientTransform="matrix(24.45 0 0 -24.45 967.18 16421)" gradientUnits="userSpaceOnUse" xlink:href="#e"/><linearGradient id="linearGradient1198" x1="48" x2="48" y1="8" y2="87" gradientUnits="userSpaceOnUse"><stop stop-color="#ffffff" offset="0"/><stop stop-color="#b4b4b7" offset="1"/></linearGradient><path d="m397 303.4a92.73 92.73 0 01-24.84 63.16 41.81 41.81 0 004.5-6 38.11 38.11 0 002.69-5.08 17.7 17.7 0 00.74-1.78 17.25 17.25 0 00.65-1.78c.21-.56.39-1.14.55-1.72s.33-1.2.46-1.81l.07-.21c.14-.6.25-1.2.37-1.81s.23-1.25.33-1.88c.09-.58.16-1.16.21-1.76a40 40 0 00.21-4.13 41.41 41.41 0 00-5.94-21.49 36.51 36.51 0 00-2.85-4.17 39.93 39.93 0 00-4-4.43 41.45 41.45 0 00-12.36-8.28 38.78 38.78 0 00-6.22-2.14h-.09l-.74-.25-10.81-3.71-28.27-9.72h-.28l-1.77-.65a26.23 26.23 0 01-13.32-11.76l-10.29-26.38-11.83-30.16-2.27-5.82-.58-1.18a13.35 13.35 0 01-1-5.08 12 12 0 010-1.35 13.19 13.19 0 0118.26-10.79l52.69 27 10.39 5.31a91.11 91.11 0 0115.34 11.45 92.45 92.45 0 0129.79 61.87c.12 2.19.21 4.35.21 6.53z" id="p1"/><path d="m382.91 338.56a42.8 42.8 0 01-.72 7.82c-.14.67-.28 1.35-.44 2-.3 1.2-.62 2.36-1 3.53-.21.6-.42 1.2-.65 1.78s-.49 1.18-.74 1.78a38.1 38.1 0 01-2.69 5.08 42.22 42.22 0 01-4.5 6c-7.68 8.49-33.75 23.63-43.36 29.79l-21.33 13c-15.63 9.63-30.41 16.45-49 16.91h-2.6c-1.2 0-2.39 0-3.57-.07a92.86 92.86 0 01-74.92-43.17 91.58 91.58 0 01-13.68-38.67 41.13 41.13 0 0060 28.95l.14-.07 2.09-1.25 8.49-5 10.81-6.4v-.3l1.39-.83 96.71-57.29 7.44-4.41.74.25h.09a38.31 38.31 0 016.22 2.14 41.45 41.45 0 0112.36 8.28 40 40 0 014 4.43 37 37 0 012.85 4.17 41.64 41.64 0 015.87 21.55z" id="p2"/><path d="m245.24 147.35v213.29l-10.85 6.36-8.5 5-2.09 1.27a.24.24 0 00-.13.06 41.13 41.13 0 01-60-28.94c-.16-.89-.28-1.81-.38-2.7-.13-1.68-.22-3.33-.25-5v-240a13.77 13.77 0 0121.46-11.41l42.07 27.48a5.55 5.55 0 00.73.51 41.14 41.14 0 0117.94 34.08z" id="p3"/><path d="m382.91 338.56a42.8 42.8 0 01-.72 7.82c-.14.67-.28 1.35-.44 2-.3 1.2-.62 2.36-1 3.53-.21.6-.42 1.2-.65 1.78s-.49 1.18-.74 1.78a38.1 38.1 0 01-2.69 5.08 41.81 41.81 0 01-4.5 6c-7.68 8.49-33.75 23.63-43.36 29.79l-21.33 13c-15.63 9.63-30.41 16.45-49 16.91h-2.6c-1.2 0-2.39 0-3.57-.07a92.86 92.86 0 01-74.92-43.17 91.58 91.58 0 01-13.68-38.67 41.13 41.13 0 0060 28.95l.14-.07 2.09-1.25 8.49-5 10.81-6.4v-.3l1.39-.83 96.71-57.29 7.44-4.41.74.25h.09a38.31 38.31 0 016.22 2.14 41.45 41.45 0 0112.36 8.28 40 40 0 014 4.43 37 37 0 012.85 4.17 41.64 41.64 0 015.87 21.55z" id="p4"/><path d="m245.24 147.35v213.29l-10.85 6.36-8.5 5-2.09 1.27a.24.24 0 00-.13.06 41.13 41.13 0 01-60-28.94c-.16-.89-.28-1.81-.38-2.7-.13-1.68-.22-3.33-.25-5v-240a13.77 13.77 0 0121.46-11.41l42.07 27.48a5.55 5.55 0 00.73.51 41.14 41.14 0 0117.94 34.08z" id="p5"/></defs>
<g opacity="1">
	<path d="m88 49c0 29.635-10.361 40-40 40-29.633 0-40-10.365-40-40 0-29.633 10.367-40 40-40 29.637 0 40 10.367 40 40z" enable-background="new    " opacity=".28109"/>
	
		
	<path d="m88 48c0 29.635-10.361 40-40 40-29.633 0-40-10.365-40-40 0-29.633 10.367-40 40-40 29.637 0 40 10.367 40 40z" fill="url(#linearGradient1198)" filter="url(#filter2624)" opacity="1"/>
	
		
	<path d="m48 8c-29.633 0-40 10.367-40 40 0 29.635 10.367 40 40 40 29.639 0 40-10.365 40-40 0-29.633-10.363-40-40-40zm0 79c-29.158 0-39-9.842-39-39s9.842-39 39-39c29.16 0 39 9.842 39 39s-9.84 39-39 39z" enable-background="new    " fill="#1a1a1a" opacity=".15"/>
<g transform="matrix(.16894 0 0 .16894 28.231 19.001)"><use xlink:href="#p1" transform="translate(-163,-82.94)" fill-opacity="1" fill="url(#a)"/><use xlink:href="#p2" transform="translate(-163,-82.94)" fill-opacity="1" fill="url(#b)"/><use xlink:href="#p3" transform="translate(-163,-82.94)" fill-opacity="1" fill="url(#c)"/><g opacity=".149"><g ><use xlink:href="#p4" transform="translate(-163,-82.94)" fill-opacity="1" fill="url(#linearGradient1190)" clip-path="url(#d)"/></g></g><g ><g><use xlink:href="#p5" transform="translate(-163,-82.94)" opacity=".098" fill-opacity="1" fill="url(#g)" clip-path="url(#f)"/></g></g></g></g>


</svg>
