<?xml version="1.0" encoding="UTF-8"?>
<svg width="96px" height="96px" enable-background="new 0 0 96 96" version="1.1" viewBox="0 0 96 96" xml:space="preserve" xmlns="http://www.w3.org/2000/svg" xmlns:xlink="http://www.w3.org/1999/xlink"><defs><filter id="d" x="-1.2e-6" y="-1.2e-6" width="1" height="1" color-interpolation-filters="sRGB"><feGaussianBlur stdDeviation="4e-05"/></filter><linearGradient id="b" x1="-29.25" x2="-23.09" y1="662.02" y2="658.46" gradientTransform="matrix(4.1306 0 0 -4.1306 164.09 2779.1)" gradientUnits="userSpaceOnUse"><stop stop-color="#37bdff" offset="0"/><stop stop-color="#33bffd" offset=".18"/><stop stop-color="#28c5f5" offset=".36"/><stop stop-color="#15d0e9" offset=".53"/><stop stop-color="#12d1e7" offset=".55"/><stop stop-color="#1cd2e5" offset=".59"/><stop stop-color="#42d8dc" offset=".77"/><stop stop-color="#59dbd6" offset=".91"/><stop stop-color="#62dcd4" offset="1"/></linearGradient><linearGradient id="c" x1="-32.86" x2="-23.89" y1="656.68" y2="656.68" gradientTransform="matrix(4.1306 0 0 -4.1306 164.09 2779.1)" gradientUnits="userSpaceOnUse"><stop stop-color="#39d2ff" offset="0"/><stop stop-color="#38cefe" offset=".15"/><stop stop-color="#35c3fa" offset=".29"/><stop stop-color="#2fb0f3" offset=".43"/><stop stop-color="#299aeb" offset=".55"/><stop stop-color="#2692ec" offset=".58"/><stop stop-color="#1a6cf1" offset=".76"/><stop stop-color="#1355f4" offset=".91"/><stop stop-color="#104cf5" offset="1"/></linearGradient><linearGradient id="a" x1="-31.2" x2="-31.2" y1="655.9" y2="667.89" gradientTransform="matrix(24.45 0 0 -24.45 967.18 16421)" gradientUnits="userSpaceOnUse"><stop stop-color="#1b48ef" offset="0"/><stop stop-color="#1c51f0" offset=".12"/><stop stop-color="#1e69f5" offset=".32"/><stop stop-color="#2190fb" offset=".57"/><stop stop-color="#26b8f4" offset="1"/></linearGradient><linearGradient id="h" x1="-63.405" x2="-13.456" y1="59.692" y2="131.83" gradientUnits="userSpaceOnUse" xlink:href="#a"/><linearGradient id="i" x1="48" x2="48" y1="8" y2="87" gradientUnits="userSpaceOnUse"><stop stop-color="#fff" offset="0"/><stop stop-color="#b5b5b4" offset="1"/></linearGradient><filter id="g" x="-.0027415" y="-.00076811" width="1.0055" height="1.0015" color-interpolation-filters="sRGB"><feGaussianBlur stdDeviation="0.015950376"/></filter><linearGradient id="j" x1="34.487" x2="32.969" y1="66.101" y2="26.214" gradientUnits="userSpaceOnUse" xlink:href="#a"/></defs><g opacity=".999"><path d="m88 49c0 29.635-10.361 40-40 40-29.633 0-40-10.365-40-40 0-29.633 10.367-40 40-40 29.637 0 40 10.367 40 40z" enable-background="new    " opacity=".28109"/><path d="m88 48c0 29.635-10.361 40-40 40-29.633 0-40-10.365-40-40 0-29.633 10.367-40 40-40 29.637 0 40 10.367 40 40z" fill="url(#i)" filter="url(#d)" opacity="1"/><path d="m48 8c-29.633 0-40 10.367-40 40 0 29.635 10.367 40 40 40 29.639 0 40-10.365 40-40 0-29.633-10.363-40-40-40zm0 79c-29.158 0-39-9.842-39-39s9.842-39 39-39c29.16 0 39 9.842 39 39s-9.84 39-39 39z" enable-background="new    " fill="#1a1a1a" opacity=".15"/><g stroke-width=".16894"><path d="m67.763 56.246c0.01424 3.9156-1.5187 7.8134-4.1965 10.67 2.9706-3.079 2.1574-8.7381-1.6293-10.789-3.0817-1.4732-6.5099-2.1375-9.6267-3.5396-2.1549-1.4182-2.3288-4.2542-3.4172-6.4009-0.82047-2.2872-1.9272-4.4991-2.5473-6.8405 0.44742-3.5969 4.258-1.755 6.1184-0.49953 3.2917 1.8411 6.9287 3.1462 9.8854 5.5242 3.3916 2.9375 5.4661 7.3751 5.4132 11.875z" fill="url(#b)"/><path d="m65.382 62.186c0.11797 3.1391-2.2278 5.6257-4.8249 7.0246-3.6758 2.3247-7.3099 4.7679-11.21 6.6994-7.0732 3.0422-15.914-0.50955-19.332-7.318-0.83402-1.2924-1.6272-4.4452-1.5702-4.9841 0.88555 4.1916 6.1368 6.6503 9.8933 4.5079 7.2003-4.2787 14.403-8.5634 21.615-12.826 3.109 0.69391 5.5091 3.6996 5.428 6.8961z" fill="url(#c)"/><path d="m42.124 29.883v36.033c-2.5758 1.4881-5.3928 3.7291-8.5569 2.7793-3.5249-0.72138-5.8138-4.4871-5.3458-7.9634 0.07784-13.322-0.07399-26.645 0.07465-39.967 0.65973-2.5046 3.8604-1.8709 5.1651-0.29605 2.4866 1.7092 5.3411 3.0302 7.3508 5.3312 0.8471 1.18 1.324 2.628 1.3121 4.0827z" fill="url(#j)" filter="url(#g)"/><path d="m65.382 62.186c0.06039 2.7277-1.6787 5.2032-4.0146 6.4987-3.6629 2.3762-7.3524 4.7351-11.186 6.8266-6.7533 3.5089-15.633 0.55701-19.52-5.816-1.2508-1.9658-2.0476-4.2179-2.3111-6.5329 0.55817 3.645 4.3739 6.3307 7.9935 5.6263 2.1723-0.36433 3.8749-1.8958 5.7802-2.8844 4.3793-2.7151 8.9498-5.319 13.403-7.9914 1.4758-0.87433 2.9518-1.7483 4.4273-2.6231 3.1269 0.71354 5.494 3.6748 5.428 6.8961z" fill="url(#h)" opacity=".149" style="isolation:isolate"/></g></g>
</svg>
