<?xml version="1.0" encoding="UTF-8"?>
<svg width="96px" height="96px" enable-background="new 0 0 96 96" version="1.1" viewBox="0 0 96 96" xml:space="preserve" xmlns="http://www.w3.org/2000/svg" xmlns:xlink="http://www.w3.org/1999/xlink"><defs><linearGradient id="a" x1="48" x2="48" y1="8" y2="87" gradientUnits="userSpaceOnUse"><stop stop-color="#fff" offset="0"/><stop stop-color="#c0c0c0" offset="1"/></linearGradient><linearGradient id="c" x1="-31.2" x2="-31.2" y1="655.9" y2="667.89" gradientTransform="matrix(4.4183 0 0 -4.4183 172.18 2969.4)" gradientUnits="userSpaceOnUse"><stop stop-color="#1b48ef" offset="0"/><stop stop-color="#1c51f0" offset=".12"/><stop stop-color="#1e69f5" offset=".32"/><stop stop-color="#2190fb" offset=".57"/><stop stop-color="#26b8f4" offset="1"/></linearGradient><linearGradient id="d" x1="-32.86" x2="-23.89" y1="656.68" y2="656.68" gradientTransform="matrix(4.4183 0 0 -4.4183 172.18 2969.4)" gradientUnits="userSpaceOnUse"><stop stop-color="#39d2ff" offset="0"/><stop stop-color="#38cefe" offset=".15"/><stop stop-color="#35c3fa" offset=".29"/><stop stop-color="#2fb0f3" offset=".43"/><stop stop-color="#299aeb" offset=".55"/><stop stop-color="#2692ec" offset=".58"/><stop stop-color="#1a6cf1" offset=".76"/><stop stop-color="#1355f4" offset=".91"/><stop stop-color="#104cf5" offset="1"/></linearGradient><linearGradient id="e" x1="-29.25" x2="-23.09" y1="662.02" y2="658.46" gradientTransform="matrix(4.4183 0 0 -4.4183 172.18 2969.4)" gradientUnits="userSpaceOnUse"><stop stop-color="#37bdff" offset="0"/><stop stop-color="#33bffd" offset=".18"/><stop stop-color="#28c5f5" offset=".36"/><stop stop-color="#15d0e9" offset=".53"/><stop stop-color="#12d1e7" offset=".55"/><stop stop-color="#1cd2e5" offset=".59"/><stop stop-color="#42d8dc" offset=".77"/><stop stop-color="#59dbd6" offset=".91"/><stop stop-color="#62dcd4" offset="1"/></linearGradient></defs><g opacity=".999"><path d="m88 49c0 29.635-10.361 40-40 40-29.633 0-40-10.365-40-40 0-29.633 10.367-40 40-40 29.637 0 40 10.367 40 40z" enable-background="new    " opacity=".28109"/><path d="m88 48c0 29.635-10.361 40-40 40-29.633 0-40-10.365-40-40 0-29.633 10.367-40 40-40 29.637 0 40 10.367 40 40z" fill="url(#a)" opacity="1"/><path d="m48 8c-29.633 0-40 10.367-40 40 0 29.635 10.367 40 40 40 29.639 0 40-10.365 40-40 0-29.633-10.363-40-40-40zm0 79c-29.158 0-39-9.842-39-39s9.842-39 39-39c29.16 0 39 9.842 39 39s-9.84 39-39 39z" enable-background="new    " fill="#1a1a1a" opacity=".15"/><g stroke-width=".030529"><path d="m69.139 56.82c0.0146 4.1902-1.6237 8.3558-4.4888 11.414 2.5492-2.7044 2.5898-7.2983 0.07176-10.038-1.1166-1.3472-2.7401-2.0802-4.3879-2.5335-2.4373-0.85372-4.9036-1.6515-7.3219-2.5396-1.2694-0.57766-2.1118-1.7673-2.5001-3.0739-1.3904-3.5896-2.8174-7.1706-4.2032-10.758-0.4741-1.6279 1.1985-3.3123 2.8309-2.8694 1.3027 0.49362 2.4997 1.2491 3.7596 1.8486 2.7754 1.4396 5.5811 2.8253 8.338 4.2979 4.861 2.9891 7.9617 8.5381 7.9018 14.252z" fill="url(#e)"/><path d="m66.593 63.174c0.04878 2.677-1.5062 5.1902-3.7603 6.5749-3.7177 2.5303-7.5816 4.8432-11.449 7.1368-3.5231 2.0866-7.8382 2.6817-11.796 1.6385-6.6271-1.5573-11.913-7.5259-12.606-14.306 0.59226 3.8499 4.5807 6.7115 8.4175 6.0393 2.2096-0.32159 3.9497-1.8153 5.8636-2.8388 2.3061-1.4876 4.7992-2.8668 7.1821-4.3098 4.1139-2.4373 8.2283-4.8738 12.342-7.3117 3.3413 0.76108 5.8803 3.9343 5.8062 7.3765z" fill="url(#d)"/><path d="m41.715 28.621v38.543c-1.8672 0.9847-3.5547 2.3649-5.6028 2.9565-3.9111 1.1023-8.3267-1.6311-9.0841-5.6233-0.32729-2.4548-0.09961-4.9496-0.16746-7.4223 0.0096-12.624-0.01917-25.25 0.01437-37.874 0.11814-1.9007 2.618-2.9141 4.0491-1.6759 2.6913 1.7948 5.4553 3.4873 8.0981 5.3504 1.6958 1.3897 2.7094 3.5525 2.6927 5.7449z" fill="url(#c)"/></g></g></svg>
